<?xml version="1.0"?>
<svg xmlns:rdf="http://www.w3.org/1999/02/22-rdf-syntax-ns#" xmlns="http://www.w3.org/2000/svg" xmlns:cc="http://web.resource.org/cc/" xmlns:dc="http://purl.org/dc/elements/1.1/" xmlns:sodipodi="http://inkscape.sourceforge.net/DTD/sodipodi-0.dtd" xmlns:svg="http://www.w3.org/2000/svg" id="svg2265" sodipodi:version="0.32" height="195pt" width="67pt" version="1.0" sodipodi:docname="Silhouette.svg" sodipodi:docbase="C:\foo\wikipedia\transfer">
  <sodipodi:namedview id="base" bordercolor="#666666" borderopacity="1.0" pagecolor="#ffffff"/>
  <path id="path2279" d="m22.574 241.67c-0.35-0.56-0.351-2.55-0.001-4.41 0.462-2.47 0.035-4.57-1.566-7.7-2.12-4.16-2.175-5-1.482-22.54 0.714-18.11 0.705-18.24-1.482-19.41l-2.201-1.17 0.207-31.67c0.113-17.41 0.156-32.84 0.096-34.29-0.07-1.64-1.775-4.36-4.589-7.29-2.463-2.58-6.1165-7.61-8.1188-11.19-3.3355-5.963-3.5931-6.985-3.0735-12.2 0.31198-3.13 0.8189-9.291 1.1265-13.691 0.5323-7.613 4.1157-27.405 5.1489-28.438 0.268-0.268 2.3791-1.206 4.6909-2.085 5.38-2.046 18.701-10.803 19.466-12.798 0.322-0.839-0.145-3.584-1.038-6.102-3.386-9.545-3.27-11.997 0.865-18.261 4.178-6.3291 5.81-7.0828 13.489-6.2278 7.38 0.8217 9.768 1.9485 10.525 4.9656 0.859 3.4212-0.187 13.431-1.545 14.789-0.582 0.581-1.056 3.33-1.054 6.107 0.005 6.3 2.881 11.55 6.328 11.55 3.324 0 7.521 2.295 12.084 6.608 3.796 3.587 3.938 3.963 4.632 12.296 0.983 11.812 4.024 22.061 7.177 24.186 1.202 0.81 1.158 3.369-0.179 10.41-0.626 3.3-1.335 7.341-1.574 8.981s-1.343 4.21-2.453 5.71-2.019 3.38-2.019 4.19c0 2.81-1.266 4.71-4.121 6.18l-2.879 1.49v13.03c0 7.17 0.427 16.05 0.949 19.73 0.521 3.68 1.157 12.49 1.411 19.57 0.445 12.37 0.375 12.96-1.793 15-2.93 2.75-4.037 9.95-3.681 23.92 0.187 7.38-0.111 11.27-0.942 12.27-0.669 0.8-1.216 3.32-1.216 5.59 0 3.62 0.51 4.56 4.136 7.57 6.788 5.64 5.962 6.27-8.193 6.27h-12.33l1.006-5.55c0.768-4.24 0.673-6.78-0.404-10.75-0.929-3.42-1.416-10.56-1.426-20.9-0.011-10.18-0.408-16.09-1.13-16.81-0.744-0.75-2.238-0.83-4.5-0.24l-3.387 0.87-0.788 12.94c-0.49 8.05-0.401 15.19 0.235 18.89 0.822 4.77 0.742 6.38-0.405 8.13-0.786 1.2-1.566 4.59-1.735 7.55l-0.307 5.37-5.661 0.3c-3.142 0.16-5.945-0.16-6.299-0.74z"/>
  <metadata>
    <rdf:RDF>
      <cc:Work>
        <dc:format>image/svg+xml</dc:format>
        <dc:type rdf:resource="http://purl.org/dc/dcmitype/StillImage"/>
        <cc:license rdf:resource="http://creativecommons.org/licenses/publicdomain/"/>
        <dc:publisher>
          <cc:Agent rdf:about="http://openclipart.org/">
            <dc:title>Openclipart</dc:title>
          </cc:Agent>
        </dc:publisher>
        <dc:title>Silhouette of a man</dc:title>
        <dc:date>2006-11-03T05:06:19</dc:date>
        <dc:description>The silhouette of a man wearing a coat.&#xD;\n&#xD;\nFrom http://commons.wikimedia.org/wiki/Image:Silhouette.svg</dc:description>
        <dc:source>http://openclipart.org/detail/1194/silhouette-of-a-man-by-liftarn</dc:source>
        <dc:creator>
          <cc:Agent>
            <dc:title>liftarn</dc:title>
          </cc:Agent>
        </dc:creator>
        <dc:subject>
          <rdf:Bag>
            <rdf:li>clip art</rdf:li>
            <rdf:li>clipart</rdf:li>
            <rdf:li>coat</rdf:li>
            <rdf:li>externalsource</rdf:li>
            <rdf:li>image</rdf:li>
            <rdf:li>man</rdf:li>
            <rdf:li>media</rdf:li>
            <rdf:li>png</rdf:li>
            <rdf:li>public domain</rdf:li>
            <rdf:li>silhouette</rdf:li>
            <rdf:li>svg</rdf:li>
            <rdf:li>wikimedia commons</rdf:li>
          </rdf:Bag>
        </dc:subject>
      </cc:Work>
      <cc:License rdf:about="http://creativecommons.org/licenses/publicdomain/">
        <cc:permits rdf:resource="http://creativecommons.org/ns#Reproduction"/>
        <cc:permits rdf:resource="http://creativecommons.org/ns#Distribution"/>
        <cc:permits rdf:resource="http://creativecommons.org/ns#DerivativeWorks"/>
      </cc:License>
    </rdf:RDF>
  </metadata>
</svg>
